# xmcd CD database file
#
# Track frame offsets:
#	150
#	18325
#	38538
#	54019
#	70255
#	87053
#	107429
#	117385
#	132924
#	156447
#	172444
#	190978
#	203871
#	220214
#	242592
#	257771
#	269992
#	284932
#	298080
#	310381
#	325671
#
# Disc length: 4683 seconds
#
# Revision: 0
# Processed by: cddbd v1.5.1PL0 Copyright (c) Steve Scherf et al.
# Submitted via: CDex 1.51
#
DISCID=47124915
DTITLE=Silly Walker - color me pop'n BEST
DYEAR=2002
DGENRE=Pop
TTITLE0=魔法の扉(Good-bye Millennium mix)/すぺらんかー feat.みろみろ☆むむ
TTITLE1=Prism Heart(quartz EDIT)/すぺらんかー feat.ユマ
TTITLE2=漢フィーヴァー -ULTIMATE TOUGH EDIT-/BLACKHEART
TTITLE3=Tap'n! Slap'n! Color Me Pop'n!/すぺらんかー
TTITLE4=クチビル(20% HI-NRG)/すぺらんかー feat.みろみろ☆むむ
TTITLE5=ドキッ！ まるごと電波 〜納涼肝試しMIX〜/すぺらんかー
TTITLE6=西新宿清掃(?)曲。/すぺらんかー
TTITLE7=I REALLY WANT TO HURT YOU 〜 僕らは完璧さ(Cheep edit)/すぺらんかー
TTITLE8=うるとら★ボーイ(CS MIX)/すぺらんかー feat.みろみろ☆むむ
TTITLE9=nigori-mizu/908
TTITLE10=すれちがう２人/すぺらんかー feat.みろみろ☆むむ
TTITLE11=走れブン！ブン！(80's G-M)/すぺらんかー feat.QOO
TTITLE12=PARANOIA 大見解 Rebirth/すぺらんかー
TTITLE13=ELECTRONISM(ese-D'nB)/すぺらんかー
TTITLE14=恋は天然/すぺらんかー feat.みろみろ☆むむ
TTITLE15=天麩羅兄弟(SLK's fake Gabba)/すぺらんかー feat.梶木 鮪
TTITLE16=Picnic(struck out)/すぺらんかー feat.みろみろ☆むむ
TTITLE17=Don't Disturb -to yourself-/Choco
TTITLE18=会社でワタシは廻ってる!?/BLACKHEART feat.みろみろ☆むむ
TTITLE19=020
TTITLE20=021
EXTD=YEAR: 2002
EXTT0=
EXTT1=
EXTT2=
EXTT3=
EXTT4=
EXTT5=
EXTT6=
EXTT7=
EXTT8=
EXTT9=
EXTT10=
EXTT11=
EXTT12=
EXTT13=
EXTT14=
EXTT15=
EXTT16=
EXTT17=
EXTT18=
EXTT19=
EXTT20=
PLAYORDER=
